<mxfile host="Electron" modified="2023-11-07T20:07:39.405Z" agent="Mozilla/5.0 (Windows NT 10.0; Win64; x64) AppleWebKit/537.36 (KHTML, like Gecko) draw.io/22.0.3 Chrome/114.0.5735.289 Electron/25.8.4 Safari/537.36" etag="n6FB0svZq_qD5T9bvNlL" version="22.0.3" type="device">
  <diagram name="Pagina-1" id="ZR_6BwqGiIvRILRJ7GTZ">
    <mxGraphModel dx="1418" dy="828" grid="1" gridSize="10" guides="1" tooltips="1" connect="1" arrows="1" fold="1" page="1" pageScale="1" pageWidth="827" pageHeight="1169" math="0" shadow="0">
      <root>
        <mxCell id="0" />
        <mxCell id="1" parent="0" />
        <mxCell id="1MviEou3UJjA7Qx_oaFe-1" value="PRODOTTO" style="rounded=0;whiteSpace=wrap;html=1;fillColor=#1ba1e2;strokeColor=#006EAF;fontColor=#ffffff;" parent="1" vertex="1">
          <mxGeometry x="580" y="370" width="120" height="60" as="geometry" />
        </mxCell>
        <mxCell id="1MviEou3UJjA7Qx_oaFe-2" value="ORDINAZIONE" style="rhombus;whiteSpace=wrap;html=1;fillColor=#ffff88;strokeColor=#36393d;" parent="1" vertex="1">
          <mxGeometry x="320" y="375" width="150" height="50" as="geometry" />
        </mxCell>
        <mxCell id="1MviEou3UJjA7Qx_oaFe-3" value="CLIENTE" style="rounded=0;whiteSpace=wrap;html=1;fillColor=#1ba1e2;strokeColor=#006EAF;fontColor=#ffffff;" parent="1" vertex="1">
          <mxGeometry x="90" y="370" width="120" height="60" as="geometry" />
        </mxCell>
        <mxCell id="1MviEou3UJjA7Qx_oaFe-6" value="- &lt;font color=&quot;#0000cc&quot;&gt;codice_fiscale&lt;/font&gt;&lt;br&gt;&lt;div style=&quot;text-align: left;&quot;&gt;&lt;span style=&quot;background-color: initial;&quot;&gt;- nominativo&amp;nbsp;&lt;/span&gt;&lt;/div&gt;" style="text;html=1;strokeColor=#d79b00;fillColor=#ffe6cc;align=center;verticalAlign=middle;whiteSpace=wrap;rounded=0;" parent="1" vertex="1">
          <mxGeometry x="20" y="415" width="90" height="35" as="geometry" />
        </mxCell>
        <mxCell id="1MviEou3UJjA7Qx_oaFe-8" value="&lt;div style=&quot;&quot;&gt;&lt;span style=&quot;background-color: initial;&quot;&gt;- &lt;font color=&quot;#0000cc&quot;&gt;codice_prodotto&lt;/font&gt;&lt;/span&gt;&lt;/div&gt;&lt;div style=&quot;&quot;&gt;&lt;span style=&quot;background-color: initial;&quot;&gt;- descrizione&lt;/span&gt;&lt;/div&gt;&lt;div style=&quot;&quot;&gt;&lt;span style=&quot;background-color: initial;&quot;&gt;- quantita_disponibile&lt;/span&gt;&lt;/div&gt;&lt;div style=&quot;&quot;&gt;&lt;span style=&quot;background-color: initial;&quot;&gt;- prezzo&lt;/span&gt;&lt;/div&gt;" style="text;html=1;strokeColor=#d79b00;fillColor=#ffe6cc;align=left;verticalAlign=middle;whiteSpace=wrap;rounded=0;" parent="1" vertex="1">
          <mxGeometry x="670" y="415" width="120" height="75" as="geometry" />
        </mxCell>
        <mxCell id="ItG0HhnWTE0emp0KrZQw-1" value="&lt;div style=&quot;&quot;&gt;&lt;span style=&quot;background-color: initial;&quot;&gt;- data_ordine&lt;/span&gt;&lt;/div&gt;&lt;div style=&quot;&quot;&gt;&lt;span style=&quot;background-color: initial;&quot;&gt;- quantita_ordine&lt;/span&gt;&lt;/div&gt;&lt;div style=&quot;&quot;&gt;&lt;span style=&quot;background-color: initial;&quot;&gt;- prezzo_acquisto&lt;/span&gt;&lt;/div&gt;" style="text;html=1;strokeColor=#d79b00;fillColor=#ffe6cc;align=left;verticalAlign=middle;whiteSpace=wrap;rounded=0;" parent="1" vertex="1">
          <mxGeometry x="414" y="415" width="105" height="55" as="geometry" />
        </mxCell>
        <mxCell id="ItG0HhnWTE0emp0KrZQw-2" value="" style="endArrow=none;html=1;rounded=0;exitX=1;exitY=0.5;exitDx=0;exitDy=0;" parent="1" source="1MviEou3UJjA7Qx_oaFe-3" edge="1">
          <mxGeometry width="50" height="50" relative="1" as="geometry">
            <mxPoint x="390" y="450" as="sourcePoint" />
            <mxPoint x="320" y="400" as="targetPoint" />
          </mxGeometry>
        </mxCell>
        <mxCell id="ItG0HhnWTE0emp0KrZQw-3" value="" style="endArrow=none;html=1;rounded=0;entryX=0;entryY=0.5;entryDx=0;entryDy=0;" parent="1" source="1MviEou3UJjA7Qx_oaFe-2" target="1MviEou3UJjA7Qx_oaFe-1" edge="1">
          <mxGeometry width="50" height="50" relative="1" as="geometry">
            <mxPoint x="480" y="399.5" as="sourcePoint" />
            <mxPoint x="590" y="399.5" as="targetPoint" />
          </mxGeometry>
        </mxCell>
        <mxCell id="ItG0HhnWTE0emp0KrZQw-4" value="ordina &lt;br&gt;(0, n)" style="text;html=1;strokeColor=none;fillColor=none;align=center;verticalAlign=middle;whiteSpace=wrap;rounded=0;" parent="1" vertex="1">
          <mxGeometry x="210" y="385" width="60" height="30" as="geometry" />
        </mxCell>
        <mxCell id="ItG0HhnWTE0emp0KrZQw-8" value="ordinato da&lt;br&gt;(0, n)" style="text;html=1;strokeColor=none;fillColor=none;align=center;verticalAlign=middle;whiteSpace=wrap;rounded=0;" parent="1" vertex="1">
          <mxGeometry x="510" y="385" width="70" height="30" as="geometry" />
        </mxCell>
        <mxCell id="ItG0HhnWTE0emp0KrZQw-9" value="" style="endArrow=classic;html=1;rounded=0;" parent="1" edge="1">
          <mxGeometry width="50" height="50" relative="1" as="geometry">
            <mxPoint x="260" y="395" as="sourcePoint" />
            <mxPoint x="280" y="395" as="targetPoint" />
          </mxGeometry>
        </mxCell>
        <mxCell id="ItG0HhnWTE0emp0KrZQw-10" value="" style="endArrow=classic;html=1;rounded=0;" parent="1" edge="1">
          <mxGeometry width="50" height="50" relative="1" as="geometry">
            <mxPoint x="512" y="393" as="sourcePoint" />
            <mxPoint x="492" y="393" as="targetPoint" />
          </mxGeometry>
        </mxCell>
      </root>
    </mxGraphModel>
  </diagram>
</mxfile>
